<svg xmlns="http://www.w3.org/2000/svg"
  width="256"
  height="256"
  viewBox="0 0 100 100">
  <rect
    width="100"
    height="100"
    rx="20"
    fill="#000000">
  </rect>
  <path
    fill="#ffffff"
    d="M28.71 74.73L28.71 74.73Q23.79 74.73 19.89 72.43Q15.98 70.13 13.71 66.16Q11.44 62.19 11.38 57.21L11.38 57.21L11.38 28.49Q11.38 27.04 12.29 26.15Q13.21 25.27 14.59 25.27L14.59 25.27Q16.04 25.27 16.93 26.15Q17.81 27.04 17.81 28.49L17.81 28.49L17.81 45.50Q20.01 42.85 23.13 41.31Q26.25 39.76 29.97 39.76L29.97 39.76Q34.56 39.76 38.22 42.06Q41.87 44.36 43.98 48.30Q46.09 52.24 46.09 57.21L46.09 57.21Q46.09 62.19 43.79 66.16Q41.49 70.13 37.59 72.43Q33.68 74.73 28.71 74.73ZM28.71 69.06L28.71 69.06Q31.92 69.06 34.44 67.51Q36.96 65.97 38.44 63.26Q39.92 60.55 39.92 57.21L39.92 57.21Q39.92 53.81 38.44 51.17Q36.96 48.52 34.44 46.98Q31.92 45.43 28.71 45.43L28.71 45.43Q25.56 45.43 23.00 46.98Q20.45 48.52 19.00 51.17Q17.55 53.81 17.55 57.21L17.55 57.21Q17.55 60.55 19.00 63.26Q20.45 65.97 23.00 67.51Q25.56 69.06 28.71 69.06ZM70.03 74.73L70.03 74.73Q65.44 74.73 61.78 72.43Q58.13 70.13 56.02 66.19Q53.91 62.25 53.91 57.28L53.91 57.28Q53.91 52.30 56.21 48.33Q58.51 44.36 62.44 42.06Q66.38 39.76 71.29 39.76L71.29 39.76Q76.21 39.76 80.11 42.06Q84.02 44.36 86.32 48.33Q88.62 52.30 88.62 57.28L88.62 57.28L86.16 57.28Q86.16 62.25 84.05 66.19Q81.94 70.13 78.29 72.43Q74.63 74.73 70.03 74.73ZM71.29 69.06L71.29 69.06Q74.51 69.06 77.03 67.51Q79.55 65.97 81.00 63.29Q82.44 60.62 82.44 57.28L82.44 57.28Q82.44 53.87 81.00 51.20Q79.55 48.52 77.03 46.98Q74.51 45.43 71.29 45.43L71.29 45.43Q68.14 45.43 65.59 46.98Q63.04 48.52 61.56 51.20Q60.08 53.87 60.08 57.28L60.08 57.28Q60.08 60.62 61.56 63.29Q63.04 65.97 65.59 67.51Q68.14 69.06 71.29 69.06ZM85.41 74.54L85.41 74.54Q84.02 74.54 83.11 73.63Q82.19 72.71 82.19 71.33L82.19 71.33L82.19 61.69L83.39 55.01L88.62 57.28L88.62 71.33Q88.62 72.71 87.71 73.63Q86.79 74.54 85.41 74.54Z">
  </path>
</svg>